<svg width="214" height="44" viewBox="0 0 214 44" fill="none" xmlns="http://www.w3.org/2000/svg">
<path d="M65.88 30.55L68.16 30.4C68.96 30.36 69.55 30.14 69.93 29.74C70.31 29.32 70.5 28.7 70.5 27.88V12.85H75.21V27.82C75.21 31.8 73.12 33.91 68.94 34.15L66.15 34.3L65.88 30.55ZM86.1286 34.24C84.5686 34.24 83.1986 33.93 82.0186 33.31C80.8386 32.67 79.9286 31.78 79.2886 30.64C78.6486 29.48 78.3286 28.12 78.3286 26.56C78.3286 25 78.6486 23.65 79.2886 22.51C79.9286 21.35 80.8386 20.46 82.0186 19.84C83.1986 19.22 84.5686 18.91 86.1286 18.91C87.6886 18.91 89.0586 19.22 90.2386 19.84C91.4186 20.46 92.3286 21.35 92.9686 22.51C93.6086 23.65 93.9286 25 93.9286 26.56C93.9286 28.12 93.6086 29.48 92.9686 30.64C92.3286 31.78 91.4186 32.67 90.2386 33.31C89.0586 33.93 87.6886 34.24 86.1286 34.24ZM86.1286 30.79C88.3286 30.79 89.4286 29.38 89.4286 26.56C89.4286 25.14 89.1386 24.08 88.5586 23.38C87.9986 22.68 87.1886 22.33 86.1286 22.33C83.9286 22.33 82.8286 23.74 82.8286 26.56C82.8286 29.38 83.9286 30.79 86.1286 30.79ZM105.805 18.91C107.085 18.91 108.215 19.22 109.195 19.84C110.175 20.46 110.935 21.35 111.475 22.51C112.035 23.65 112.315 24.98 112.315 26.5C112.315 28.02 112.035 29.37 111.475 30.55C110.935 31.71 110.165 32.62 109.165 33.28C108.185 33.92 107.065 34.24 105.805 34.24C104.785 34.24 103.865 34.03 103.045 33.61C102.225 33.17 101.595 32.57 101.155 31.81V34H96.6853V12.85H101.215V21.25C101.655 20.51 102.275 19.94 103.075 19.54C103.895 19.12 104.805 18.91 105.805 18.91ZM104.485 30.79C105.545 30.79 106.365 30.42 106.945 29.68C107.525 28.92 107.815 27.86 107.815 26.5C107.815 25.16 107.525 24.14 106.945 23.44C106.365 22.72 105.545 22.36 104.485 22.36C103.425 22.36 102.605 22.73 102.025 23.47C101.445 24.19 101.155 25.22 101.155 26.56C101.155 27.92 101.445 28.97 102.025 29.71C102.605 30.43 103.425 30.79 104.485 30.79ZM120.754 34.24C119.394 34.24 118.144 34.09 117.004 33.79C115.884 33.47 114.914 33.02 114.094 32.44L115.294 29.32C116.094 29.86 116.974 30.28 117.934 30.58C118.894 30.88 119.864 31.03 120.844 31.03C121.544 31.03 122.084 30.92 122.464 30.7C122.864 30.46 123.064 30.14 123.064 29.74C123.064 29.38 122.924 29.1 122.644 28.9C122.384 28.7 121.884 28.52 121.144 28.36L118.744 27.82C117.324 27.5 116.274 27.01 115.594 26.35C114.934 25.67 114.604 24.75 114.604 23.59C114.604 22.67 114.864 21.86 115.384 21.16C115.924 20.46 116.674 19.91 117.634 19.51C118.614 19.11 119.724 18.91 120.964 18.91C122.024 18.91 123.054 19.07 124.054 19.39C125.054 19.71 125.954 20.16 126.754 20.74L125.554 23.74C123.994 22.66 122.454 22.12 120.934 22.12C120.234 22.12 119.684 22.24 119.284 22.48C118.884 22.72 118.684 23.06 118.684 23.5C118.684 23.82 118.804 24.07 119.044 24.25C119.284 24.43 119.704 24.6 120.304 24.76L122.794 25.33C124.294 25.67 125.384 26.19 126.064 26.89C126.764 27.57 127.114 28.5 127.114 29.68C127.114 31.1 126.544 32.22 125.404 33.04C124.284 33.84 122.734 34.24 120.754 34.24ZM138.442 12.85H148.162C150.462 12.85 152.252 13.43 153.532 14.59C154.812 15.75 155.452 17.37 155.452 19.45C155.452 21.53 154.812 23.15 153.532 24.31C152.252 25.47 150.462 26.05 148.162 26.05H143.122V34H138.442V12.85ZM147.562 22.51C149.902 22.51 151.072 21.5 151.072 19.48C151.072 18.44 150.782 17.67 150.202 17.17C149.622 16.67 148.742 16.42 147.562 16.42H143.122V22.51H147.562ZM176.661 22.33V32.68C175.641 33.18 174.441 33.57 173.061 33.85C171.681 34.13 170.261 34.27 168.801 34.27C166.561 34.27 164.621 33.84 162.981 32.98C161.341 32.1 160.081 30.85 159.201 29.23C158.321 27.59 157.881 25.65 157.881 23.41C157.881 21.21 158.311 19.3 159.171 17.68C160.051 16.04 161.301 14.78 162.921 13.9C164.541 13.02 166.431 12.58 168.591 12.58C170.111 12.58 171.521 12.79 172.821 13.21C174.141 13.63 175.231 14.21 176.091 14.95L174.621 18.28C173.641 17.58 172.681 17.08 171.741 16.78C170.821 16.46 169.821 16.3 168.741 16.3C164.661 16.3 162.621 18.67 162.621 23.41C162.621 25.85 163.151 27.67 164.211 28.87C165.271 30.07 166.871 30.67 169.011 30.67C170.171 30.67 171.321 30.52 172.461 30.22V25.57H168.321V22.33H176.661Z" fill="white"/>
<path d="M38.5 29.3333V14.6667C38.4993 14.0237 38.3296 13.3921 38.0078 12.8354C37.686 12.2788 37.2235 11.8165 36.6667 11.495L23.8333 4.16165C23.2759 3.83983 22.6436 3.67041 22 3.67041C21.3564 3.67041 20.7241 3.83983 20.1667 4.16165L7.33333 11.495C6.77648 11.8165 6.31396 12.2788 5.99218 12.8354C5.6704 13.3921 5.50066 14.0237 5.5 14.6667V29.3333C5.50066 29.9763 5.6704 30.6078 5.99218 31.1645C6.31396 31.7212 6.77648 32.1835 7.33333 32.505L20.1667 39.8383C20.7241 40.1601 21.3564 40.3296 22 40.3296C22.6436 40.3296 23.2759 40.1601 23.8333 39.8383L36.6667 32.505C37.2235 32.1835 37.686 31.7212 38.0078 31.1645C38.3296 30.6078 38.4993 29.9763 38.5 29.3333Z" stroke="#FD7375" stroke-width="3" stroke-linecap="round" stroke-linejoin="round"/>
<path d="M13.75 7.71832L22 12.485L30.25 7.71832" stroke="#FD7375" stroke-width="3" stroke-linecap="round" stroke-linejoin="round"/>
<path d="M13.75 36.2817V26.7667L5.5 22" stroke="#FD7375" stroke-width="3" stroke-linecap="round" stroke-linejoin="round"/>
<path d="M38.5 22L30.25 26.7667V36.2817" stroke="#FD7375" stroke-width="3" stroke-linecap="round" stroke-linejoin="round"/>
<path d="M5.995 12.76L22 22.0183L38.005 12.76" stroke="#FD7375" stroke-width="3" stroke-linecap="round" stroke-linejoin="round"/>
<path d="M22 40.48V22" stroke="#FD7375" stroke-width="3" stroke-linecap="round" stroke-linejoin="round"/>
</svg>
